<svg width="35" height="42" viewBox="0 0 35 42" fill="none" xmlns="http://www.w3.org/2000/svg">
<g clip-path="url(#clip0_58_87)">
<path d="M24.4501 9.711C27.1342 9.711 29.31 7.5391 29.31 4.85994C29.31 2.18078 27.1342 0.00889015 24.4501 0.00889015C21.766 0.00889015 19.5901 2.18078 19.5901 4.85994C19.5901 7.5391 21.766 9.711 24.4501 9.711Z" fill="#FEF4F5"/>
<path d="M34.4756 28.1403C34.4756 28.5774 34.4222 29.0011 34.3198 29.4056C34.3064 29.4649 34.2901 29.5212 34.2708 29.5775C34.2634 29.6131 34.2515 29.6471 34.2411 29.6827C34.2381 29.6901 34.2352 29.696 34.2337 29.7034C34.2233 29.7434 34.2129 29.7834 34.198 29.8235C34.198 29.8264 34.1951 29.8294 34.1951 29.8294C34.1847 29.8649 34.1713 29.899 34.155 29.9346C34.1283 30.0101 34.0956 30.0842 34.0659 30.1598C34.0333 30.2368 33.9991 30.3124 33.9605 30.388C33.9234 30.4635 33.8848 30.5376 33.8448 30.6102C33.8121 30.6739 33.778 30.7332 33.7394 30.7954C33.6562 30.9377 33.5672 31.071 33.4647 31.2029C33.4276 31.2562 33.3876 31.3096 33.3445 31.3614C33.3044 31.4118 33.2614 31.4637 33.2183 31.5141C33.1753 31.563 33.1322 31.6133 33.0862 31.6622C33.0432 31.7111 32.9972 31.7585 32.9496 31.8045C32.01 32.732 30.7171 33.3069 29.2906 33.3069C29.2134 33.3069 29.1377 33.3039 29.059 33.301C29.0397 33.301 29.0234 33.301 29.0056 33.298C28.9254 33.2921 28.8438 33.2876 28.7636 33.2788C28.6834 33.2713 28.6018 33.2595 28.5246 33.2521C28.3583 33.2313 28.1936 33.2032 28.0303 33.1765C28.0244 33.1765 28.0169 33.1736 28.011 33.1706C27.9338 33.1573 27.8551 33.141 27.7779 33.1276C27.6191 33.0921 27.4588 33.058 27.3029 33.018C27.2257 32.9972 27.1441 32.975 27.0669 32.9543C26.9897 32.9335 26.914 32.9083 26.8353 32.8846C26.6824 32.8387 26.5295 32.7853 26.3811 32.735C26.3039 32.7053 26.2282 32.6757 26.1525 32.6461C26.0768 32.6164 26.0026 32.5868 25.9298 32.5542C25.8571 32.5216 25.7814 32.4905 25.7101 32.4579C25.6374 32.4253 25.5647 32.3912 25.4949 32.3586C25.3494 32.289 25.2069 32.2164 25.0674 32.1408C25.054 32.1334 25.0377 32.1216 25.0214 32.1171C24.8284 32.0104 24.6399 31.8978 24.4543 31.7793C24.3341 31.7022 24.2124 31.6207 24.0936 31.5378L23.8606 31.3689C23.8012 31.3229 23.7403 31.2755 23.681 31.2296C23.6186 31.1807 23.5577 31.1303 23.4984 31.0814C23.2534 30.8799 23.0204 30.668 22.7977 30.4458C22.7413 30.3895 22.6879 30.3332 22.6344 30.2768C22.4147 30.0487 22.204 29.8072 22.008 29.5553C21.962 29.496 21.916 29.4367 21.8714 29.376C21.8225 29.3138 21.7779 29.25 21.7319 29.1863C21.5864 28.9878 21.4528 28.7818 21.3237 28.5699C21.2881 28.5107 21.2539 28.4499 21.2183 28.3907C21.1723 28.3106 21.1263 28.2292 21.0847 28.1491C19.9432 26.057 18.6161 24.0834 17.1213 22.2461L17.1183 22.2431C14.1733 18.6248 10.5839 15.5489 6.52406 13.1944C6.52406 13.1944 6.52109 13.1944 6.51812 13.1915C6.41273 13.1278 6.30585 13.0655 6.20046 13.0063C6.12772 12.9663 6.05499 12.9233 5.98077 12.8833C5.96741 12.8759 5.95701 12.87 5.94365 12.8625C5.72841 12.7336 5.52505 12.587 5.33653 12.4195C4.49783 11.7009 3.93079 10.6771 3.80016 9.52134C3.78383 9.36576 3.77344 9.21018 3.77344 9.05164C3.77344 8.9746 3.77641 8.89607 3.77938 8.8205C3.79867 8.36266 3.88625 7.9226 4.03469 7.51217C4.32267 6.78614 4.62846 6.06604 4.94761 5.35631H4.95058C5.14652 4.9118 5.35286 4.47174 5.56513 4.03464C5.66162 3.83313 5.7581 3.63459 5.85756 3.43604C6.07577 2.99301 6.3014 2.55592 6.53445 2.12178C6.53445 2.12178 6.53445 2.11882 6.53742 2.11882C6.61461 1.9662 6.69625 1.81655 6.77641 1.66542C6.78383 1.64616 6.79571 1.63282 6.8061 1.61652C6.84915 1.54985 6.89517 1.48465 6.94267 1.4239C6.97532 1.37797 7.00947 1.33204 7.04806 1.29055C7.08369 1.24758 7.11783 1.20758 7.15494 1.16757C7.34494 0.952727 7.56018 0.766034 7.79918 0.607493C7.89269 0.543781 7.99066 0.484513 8.09161 0.431172C8.23708 0.351161 8.387 0.281522 8.54287 0.225217C8.61857 0.195584 8.69279 0.171877 8.7685 0.149651C8.84421 0.125944 8.92139 0.106682 9.00007 0.0903837C9.03273 0.0829753 9.06687 0.0770485 9.10249 0.0696401C9.17226 0.0563049 9.24203 0.0429697 9.3118 0.0340795C9.37117 0.0266711 9.43055 0.0207443 9.48844 0.0148176C9.5018 0.0118542 9.51516 0.0118542 9.52852 0.0118542H10.0332H10.0362H12.5567C12.5701 0.0118542 12.5805 0.0118542 12.5938 0.0148176C12.6606 0.0207443 12.726 0.0251894 12.7928 0.0355612C12.8224 0.041488 12.8521 0.0429697 12.8818 0.0488964C13.0243 0.0696401 13.1609 0.102237 13.296 0.142243C13.3361 0.152615 13.3732 0.162987 13.4118 0.177803C13.5439 0.220772 13.673 0.27115 13.7933 0.327454C13.86 0.360051 13.9268 0.391167 13.9951 0.429691C14.0144 0.437099 14.0322 0.448953 14.0515 0.462288C14.1317 0.505257 14.2104 0.555634 14.2876 0.607493C14.3811 0.669724 14.4731 0.7364 14.5592 0.811967C14.5948 0.838637 14.629 0.868271 14.6616 0.900868C14.6987 0.933465 14.7373 0.967544 14.7715 1.0031C14.8249 1.05348 14.8769 1.1083 14.9273 1.16165C15.0045 1.24462 15.0773 1.33352 15.1456 1.42687C15.1752 1.46391 15.202 1.50243 15.2287 1.53948C15.2643 1.58837 15.2955 1.63875 15.3252 1.68913C15.3578 1.74247 15.389 1.79877 15.4217 1.85508C15.4276 1.86248 15.432 1.87137 15.435 1.87878V1.88175C15.4424 1.90545 15.4513 1.93064 15.4617 1.95435C15.4988 2.06696 15.5419 2.17957 15.5849 2.28921C15.6384 2.44183 15.6978 2.59148 15.7571 2.73965C15.7571 2.73965 15.7581 2.74162 15.7601 2.74557C15.7735 2.78113 15.7868 2.81521 15.8002 2.85077C15.8596 3.00042 15.9204 3.15156 15.9857 3.30121C16.0525 3.46271 16.1223 3.62273 16.195 3.78127C16.3539 4.13836 16.5201 4.48656 16.6953 4.83031C16.7354 4.91328 16.7784 4.9933 16.8215 5.07479C16.9536 5.3326 17.0901 5.58893 17.2356 5.8423C17.3024 5.96528 17.3722 6.08826 17.4449 6.20976C17.4687 6.25569 17.4954 6.29866 17.5206 6.33867C17.6141 6.49721 17.7121 6.65723 17.8086 6.81281C17.9214 6.99802 18.0402 7.17731 18.1574 7.35659C18.2005 7.42623 18.2465 7.49587 18.294 7.56255C18.34 7.62922 18.3875 7.69886 18.4335 7.76702C18.4959 7.86333 18.5597 7.95667 18.6295 8.0515C18.6829 8.13151 18.7393 8.21004 18.7987 8.28709C18.9872 8.54935 19.1802 8.81013 19.3821 9.06498C19.5083 9.22648 19.6344 9.38651 19.7665 9.54505C19.8987 9.70655 20.0293 9.86361 20.1673 10.0222C20.2668 10.1377 20.3662 10.2533 20.4687 10.3659C20.6438 10.5615 20.8205 10.7541 21.0031 10.9452C21.0788 11.0253 21.153 11.1038 21.2317 11.1808C21.3044 11.2579 21.3801 11.3364 21.4573 11.4135H21.4603C21.5731 11.5261 21.6889 11.6416 21.8046 11.7513C21.9204 11.8609 22.0362 11.9706 22.1535 12.0817C22.2722 12.1913 22.3895 12.2995 22.5083 12.4062C22.6285 12.5129 22.7502 12.6181 22.8705 12.7233C22.9625 12.8033 23.0501 12.8788 23.1421 12.9544C23.2148 13.0166 23.2876 13.0774 23.3618 13.1367C23.3945 13.1663 23.4286 13.193 23.4613 13.2196C23.4716 13.227 23.482 13.2359 23.4939 13.2463C23.5132 13.2626 23.534 13.2759 23.5533 13.2922C23.6023 13.3278 23.6468 13.3648 23.6928 13.4019C23.7522 13.4449 23.8086 13.4908 23.865 13.5382C23.8843 13.5515 23.9051 13.5678 23.9244 13.5841C23.9303 13.5901 23.9378 13.5945 23.9437 13.6004C24.4009 13.9709 24.8432 14.3487 25.2841 14.7369C28.7577 17.8232 31.6701 21.5245 33.8462 25.6732C33.8863 25.7488 33.9264 25.8229 33.965 25.9014C34.293 26.58 34.4756 27.3387 34.4756 28.1432V28.1403Z" fill="#FEF4F5"/>
<path d="M6.53906 2.12178C6.6118 1.95287 6.6979 1.79433 6.79438 1.64171C6.70829 1.80025 6.62219 1.96028 6.53906 2.12178Z" fill="#FEF4F5"/>
<path d="M10.042 0.0103887H9.53149C9.6146 0.0029682 9.70068 0 9.78676 0C9.87284 0 9.95892 0.0029682 10.042 0.0103887Z" fill="#FEF4F5"/>
<path d="M12.3087 0C12.3948 0 12.4809 0.0029682 12.564 0.0103887H12.0535C12.1381 0.0029682 12.2241 0 12.3087 0Z" fill="#FEF4F5"/>
<path d="M29.0308 36.8823C29.0308 37.432 28.7859 37.9254 28.4014 38.2602C28.3985 38.2662 28.3955 38.2676 28.394 38.2662C28.3747 38.2825 28.3539 38.2988 28.3347 38.3151C28.2946 38.3506 28.2515 38.3817 28.2085 38.4114C27.2896 39.1196 26.2951 39.739 25.2426 40.2531C24.6726 40.5287 24.0907 40.7791 23.488 40.994C22.1714 41.4666 20.7805 41.7852 19.3391 41.9274H19.3317C18.971 41.963 18.6058 41.9867 18.2406 42C18.2376 42.003 18.2347 42.003 18.2332 42C16.8527 41.9496 15.6087 41.3584 14.7062 40.4339C14.4747 40.1198 14.2327 39.8116 13.9863 39.5063V39.5034C11.0575 35.8614 7.42516 32.8091 3.29551 30.554C3.13965 30.468 2.98379 30.3821 2.82495 30.3021C2.81753 30.2961 2.81159 30.2947 2.80566 30.2917C1.51867 29.5108 0.596846 28.1892 0.360823 26.6423C0.360823 26.6349 0.357855 26.623 0.357855 26.6156C0.350432 26.5401 0.341526 26.4675 0.334104 26.3934C0.328166 26.3341 0.323713 26.2778 0.320744 26.2185C0.314806 26.1696 0.313322 26.1252 0.310353 26.0763C0.270274 25.6155 0.250977 25.1487 0.250977 24.6791C0.250977 24.5738 0.250977 24.4731 0.253945 24.3679C0.304416 23.587 0.36973 22.8121 0.449888 22.0402C0.452857 22.0342 0.452857 22.0298 0.452857 22.0239C0.665129 19.9776 0.993185 17.9685 1.42812 15.9978V15.9919C1.4489 15.8985 1.4682 15.8037 1.49195 15.7104C1.49492 15.703 1.49789 15.6911 1.49937 15.6807C1.67899 15.1044 2.09611 14.6317 2.63792 14.3798C2.76112 14.3205 2.89324 14.2731 3.0298 14.2376C3.19606 14.1976 3.36825 14.1753 3.54638 14.1753C3.87147 14.1753 4.2114 14.2494 4.47563 14.3739C4.47859 14.3769 4.48305 14.3798 4.48602 14.3798C4.56914 14.4257 4.65227 14.4717 4.73391 14.5191C4.74134 14.525 4.74727 14.5295 4.7547 14.5324C10.6493 17.8366 15.5657 22.6802 18.9561 28.5181C18.9799 28.5581 19.0021 28.5981 19.0259 28.6381C20.111 30.4784 21.6073 32.049 23.3856 33.2269C24.6429 34.0582 26.0457 34.6938 27.5479 35.0879C27.5613 35.0909 27.5717 35.0909 27.5806 35.0953C27.634 35.1057 27.6874 35.119 27.7394 35.1353C28.4861 35.3665 29.0294 36.0599 29.0294 36.8808L29.0308 36.8823Z" fill="#FEF4F5"/>
<path d="M11.2595 39.5078C11.2595 39.9819 10.875 40.3657 10.403 40.3657C10.3169 40.3657 10.2338 40.3523 10.1551 40.3301C10.112 40.3108 10.069 40.2901 10.0259 40.2679C9.99031 40.2516 9.95617 40.2323 9.92054 40.2175C9.91758 40.2175 9.91461 40.2116 9.91461 40.2116C7.22484 38.884 4.93142 36.8807 3.25403 34.4211C3.20801 34.3515 3.16051 34.2848 3.11449 34.2152C3.10856 34.2122 3.10856 34.2092 3.10856 34.2078C3.05215 34.0952 3.02246 33.9722 3.02246 33.8373C3.02246 33.3647 3.40692 32.9824 3.87897 32.9824C4.02741 32.9824 4.16695 33.0194 4.28718 33.0876C4.32726 33.1143 4.36734 33.1409 4.40742 33.1676C4.41336 33.1676 4.41781 33.1735 4.42375 33.178C6.83147 34.8034 9.02841 36.7148 10.9656 38.8662C11.0086 38.9166 11.0546 38.9655 11.0992 39.0159C11.1021 39.0218 11.1051 39.0233 11.1066 39.0262C11.2001 39.1625 11.255 39.33 11.255 39.5063L11.2595 39.5078Z" fill="#FEF4F5"/>
<path d="M34.2811 19.5746C34.2811 19.8176 34.1876 20.0369 34.0347 20.2043C33.864 20.3925 33.6176 20.5096 33.3445 20.5096C33.0862 20.5096 32.8516 20.4044 32.6839 20.2369C32.6809 20.234 32.675 20.228 32.672 20.2251C32.6245 20.1584 32.5755 20.0873 32.5221 20.0206C32.5221 20.0206 32.5191 20.0206 32.5221 20.0176C32.1673 19.5376 31.8036 19.0664 31.4281 18.6026C31.1253 18.2278 30.818 17.8558 30.5033 17.4928C30.2717 17.2232 30.0342 16.9535 29.7938 16.6898C29.4033 16.2586 29.007 15.8378 28.5988 15.4244C28.244 15.0614 27.8833 14.7073 27.5167 14.3605C27.0001 13.8716 26.4746 13.3974 25.9387 12.9337C25.8793 12.8833 25.8244 12.8344 25.765 12.787C25.6092 12.6196 25.5127 12.3973 25.5127 12.1513C25.5127 11.7794 25.7294 11.4579 26.0471 11.3083C26.0946 11.2934 26.1406 11.2757 26.1881 11.2549C26.4969 11.1349 26.7923 10.9941 27.0773 10.8326C27.294 10.7097 27.5063 10.5778 27.7081 10.4311C28.0332 10.2029 28.339 9.9451 28.6211 9.66654C28.958 9.3302 29.2668 8.96126 29.531 8.56269C29.534 8.55676 29.5369 8.55083 29.5399 8.54787C29.5726 8.50045 29.6037 8.45452 29.6364 8.40414C29.6364 8.40118 29.6364 8.39822 29.6394 8.39822C29.8101 8.19078 30.0713 8.05891 30.3608 8.05891C30.7126 8.05891 31.0184 8.25153 31.1802 8.53601C31.2129 8.61751 31.244 8.70048 31.2737 8.78198C32.0545 10.7852 32.7225 12.8448 33.2747 14.9503C33.5968 16.1741 33.8818 17.4187 34.1223 18.6752C34.1639 18.8797 34.201 19.0827 34.2366 19.2872C34.2366 19.2872 34.2376 19.2891 34.2396 19.2931C34.2425 19.3138 34.2455 19.3346 34.2485 19.3524C34.2574 19.4057 34.2663 19.4546 34.2782 19.505C34.2811 19.5287 34.2811 19.5494 34.2811 19.5716V19.5746Z" fill="#FEF4F5"/>
</g>
<defs>
<clipPath id="clip0_58_87">
<rect width="34.7279" height="42" fill="white"/>
</clipPath>
</defs>
</svg>
